<svg width="93" height="36" viewBox="0 0 93 36" fill="none" xmlns="http://www.w3.org/2000/svg">
<path d="M3.89279 21.3907C4.15891 21.3408 4.4583 21.3076 4.79095 21.3076C4.84085 19.5611 5.8388 16.6671 6.90329 13.6732C5.90533 13.5235 5.05707 13.5235 4.54146 13.8728C4.17554 12.4257 5.55605 12.143 7.45216 12.1763C8.43349 9.39861 9.38155 6.6875 9.58114 4.87455C8.00104 4.77475 6.6039 4.94108 5.72237 5.93903C5.43962 6.23842 4.67452 2.46282 8.1341 1.83078C10.945 1.31517 16.9328 3.61047 18.8122 0.965883C19.095 0.583333 19.3278 4.04291 17.4484 4.97434C16.2508 5.55648 14.6707 5.48995 13.0241 5.29036C12.7912 6.88709 11.9263 9.53168 11.0282 12.4091C12.9908 12.5422 14.7206 12.5255 15.0865 11.5941C15.6687 15.0703 13.1904 14.9539 10.4294 14.3884C9.6643 16.9498 8.9491 19.5445 8.68298 21.6568C11.0947 21.9396 13.5064 22.0394 14.5709 20.5258C14.8537 20.1433 15.0865 23.6029 13.207 24.5177C9.91379 26.1476 3.84289 22.8211 1.48106 25.4823C1.1983 25.7817 0.433204 22.0061 3.89279 21.3907ZM17.9141 11.1617C17.8974 11.0951 21.5899 10.7625 21.5233 12.8915C21.4735 14.2553 18.28 21.241 18.9453 23.4864C20.5753 21.4074 24.9164 11.1617 24.9164 11.1617C24.8998 11.0951 28.5922 10.7625 28.509 12.8915C28.4591 14.272 25.6649 19.8439 25.9476 23.5862C27.2283 22.239 28.7752 18.5299 29.0579 17.8313C29.0912 17.7648 29.1577 17.7316 29.2242 17.7316C29.3573 17.7316 29.4405 17.848 29.4072 17.9644C29.008 19.1952 27.3448 24.2682 26.4799 24.7838C25.4819 25.3992 22.7708 24.368 22.5213 23.2369C22.039 21.1412 24.0681 16.1515 24.7501 13.141C23.4195 16.6172 20.3424 24.4179 19.2779 24.8836C18.2966 25.2994 15.6354 24.4511 15.4192 23.1205C15.02 20.7088 18.4297 13.0911 17.9141 11.1617ZM25.3156 32.9171C24.6336 28.7257 30.9873 14.6213 30.322 11.1284C30.3054 11.0619 34.1475 11.1284 33.9146 13.2407C33.6984 15.2533 30.8376 23.187 29.4904 29.0916C31.9021 20.1433 36.5426 11.6773 37.2578 11.2615C37.9065 10.8789 39.9024 11.4444 40.7174 12.8748C41.8151 14.8042 39.4866 24.1185 35.6278 24.9002C34.7629 25.0832 32.7171 23.8025 32.3013 23.2868C30.8709 26.9626 29.5403 31.0709 28.9082 34.8631C28.8251 35.2623 25.5983 34.6469 25.3156 32.9171ZM37.6071 12.3093C37.3909 12.2262 34.8294 16.8667 32.4842 22.8045C35.5613 24.5343 38.3888 12.6253 37.6071 12.3093ZM40.3847 22.9875C39.7028 18.7794 46.1396 4.19261 45.7072 1.08231C45.6905 1.01578 49.2166 1.19874 48.9838 3.31108C48.7509 5.48995 45.3745 14.6712 44.2435 20.6589C45.8569 16.6671 48.6678 10.9621 50.2811 11.1118C51.2126 11.1949 53.092 12.0765 53.2584 12.642C53.7241 14.2054 50.4641 21.3408 50.3976 23.7027C51.6949 22.4552 53.3249 18.5465 53.6076 17.8313C53.6409 17.7648 53.7074 17.7316 53.774 17.7316C53.907 17.7316 53.9902 17.848 53.9569 17.9644C53.5578 19.1952 51.7282 24.8337 50.9963 24.9335C49.5493 25.1331 47.1043 24.0852 46.9047 22.7712C46.6552 20.9915 49.4994 15.22 49.7821 12.4257C48.9505 12.2927 43.9441 22.3055 43.9774 24.8836C44.0772 25.3493 40.6841 24.7505 40.3847 22.9875ZM53.4081 22.7546C52.4267 19.977 54.6555 13.0245 57.167 11.4112C58.0319 10.8457 60.3771 10.9953 61.1256 11.4943C61.7743 11.9101 61.3584 12.3093 61.3584 12.3093C58.6473 11.0452 55.4539 22.8211 56.7013 23.9688C58.1484 25.2994 61.5913 14.405 59.5122 13.9726C59.5122 13.9726 60.4769 12.6087 61.3085 12.7085C64.186 13.0911 62.0071 22.871 57.982 24.7671C56.8843 25.2828 54.273 25.183 53.4081 22.7546ZM62.1235 23.1538C61.6911 20.5092 64.9677 13.0578 64.4355 11.1284C64.4188 11.0619 68.3109 10.7625 68.2443 12.8915C68.1944 14.089 66.0821 18.4468 65.7162 22.0228C66.9803 18.0975 69.8743 10.9454 71.6707 11.1118C72.6021 11.1949 74.2321 11.96 74.3984 12.5089C74.6146 13.2407 72.3859 16.7336 72.9846 18.8958C68.0281 18.6796 71.2382 13.0744 71.1717 12.4257C70.3401 12.2927 65.8825 22.2057 65.8991 24.8004C65.9158 24.9002 65.7994 24.9667 65.7162 24.9501C65.001 24.8669 62.3398 24.4844 62.1235 23.1538ZM79.3549 10.8623C74.598 10.2302 77.6251 7.5524 77.4255 5.78934C82.5817 6.62097 78.9391 8.40066 79.3549 10.8623ZM72.968 23.1538C72.5023 20.609 75.9286 13.0578 75.413 11.1284C75.3964 11.0619 79.2551 10.7625 79.1886 12.8915C79.1387 14.272 76.3777 19.7607 76.6105 23.5031C77.8746 22.0893 79.3716 18.5133 79.6543 17.8313C79.6709 17.7648 79.7375 17.7316 79.8206 17.7316C79.9371 17.7316 80.0202 17.848 79.987 17.9644C79.6044 19.1952 77.7915 24.5177 76.9931 24.9002C76.1781 25.2661 73.1842 24.4012 72.968 23.1538ZM82.9143 24.8836C82.3155 25.2994 79.621 24.5676 79.0056 23.4532C78.2073 22.0228 80.2032 14.7709 82.0328 12.4257C83.4632 10.6128 86.5568 11.0619 87.2887 11.4943C87.4716 11.5941 87.5382 11.6939 87.4384 11.9767C87.3219 12.2927 87.0891 12.2262 86.7232 12.1264C84.8603 11.644 82.066 21.8564 82.249 23.9355L88.1868 11.2947C88.3864 10.7459 91.9125 11.6606 91.5799 12.3592C91.2472 13.0578 88.8189 21.3408 88.7523 23.7027C90.0497 22.4552 91.6963 18.5465 91.9791 17.8313C92.0123 17.7648 92.0789 17.7316 92.1454 17.7316C92.2618 17.7316 92.3616 17.848 92.3117 17.9644C91.9292 19.1952 90.0996 24.8337 89.3678 24.9335C87.9041 25.1331 85.4591 24.0852 85.2761 22.7712C85.1098 21.6568 86.0246 18.2139 86.8729 15.3864C85.4092 19.1786 83.247 24.6507 82.9143 24.8836Z" fill="#3C4242"/>
</svg>
